<svg width="62" height="73" viewBox="0 0 62 73" fill="none" xmlns="http://www.w3.org/2000/svg">
<path d="M51.4529 5.40347C45.9091 5.40347 41.4059 9.85026 41.4059 15.3246C41.4059 19.7625 44.3751 23.5272 48.4478 24.794V33.2889L13.7765 44.5033V19.3196C17.7415 17.9909 20.5941 14.2793 20.5941 9.92113C20.5941 4.44679 16.0909 0 10.5471 0C5.00324 0 0.5 4.44679 0.5 9.92113C0.5 14.2793 3.35265 17.982 7.31765 19.3196V53.6804C3.35265 55.0091 0.5 58.7207 0.5 63.0789C0.5 68.5532 5.00324 73 10.5471 73C16.0909 73 20.5941 68.5532 20.5941 63.0789C20.5941 58.7207 17.7415 55.018 13.7765 53.6804V51.2178L51.7669 38.9316C52.6792 38.6387 53.4739 38.0675 54.0365 37.3002C54.5991 36.533 54.9006 35.6092 54.8977 34.6619V24.6434C58.746 23.2438 61.5 19.5942 61.5 15.3246C61.5 9.85026 56.9968 5.40347 51.4529 5.40347ZM6.24118 9.92113C6.26418 8.80848 6.72794 7.74906 7.53294 6.97021C8.33795 6.19136 9.42005 5.75513 10.5471 5.75513C11.6741 5.75513 12.7562 6.19136 13.5612 6.97021C14.3662 7.74906 14.8299 8.80848 14.8529 9.92113C14.8299 11.0338 14.3662 12.0932 13.5612 12.872C12.7562 13.6509 11.6741 14.0871 10.5471 14.0871C9.42005 14.0871 8.33795 13.6509 7.53294 12.872C6.72794 12.0932 6.26418 11.0338 6.24118 9.92113ZM14.8529 63.07C14.8299 64.1827 14.3662 65.2421 13.5612 66.0209C12.7562 66.7998 11.6741 67.236 10.5471 67.236C9.42005 67.236 8.33795 66.7998 7.53294 66.0209C6.72794 65.2421 6.26418 64.1827 6.24118 63.07C6.26418 61.9574 6.72794 60.898 7.53294 60.1191C8.33795 59.3402 9.42005 58.904 10.5471 58.904C11.6741 58.904 12.7562 59.3402 13.5612 60.1191C14.3662 60.898 14.8299 61.9574 14.8529 63.07ZM51.4529 19.5765C50.3262 19.5538 49.2533 19.0958 48.4646 18.3009C47.6758 17.506 47.2341 16.4375 47.2341 15.3246C47.2341 14.2117 47.6758 13.1432 48.4646 12.3483C49.2533 11.5533 50.3262 11.0954 51.4529 11.0727C52.5797 11.0954 53.6526 11.5533 54.4413 12.3483C55.2301 13.1432 55.6718 14.2117 55.6718 15.3246C55.6718 16.4375 55.2301 17.506 54.4413 18.3009C53.6526 19.0958 52.5797 19.5538 51.4529 19.5765Z" fill="#66B896"/>
</svg>
