<svg width="73" height="73" viewBox="0 0 73 73" fill="none" xmlns="http://www.w3.org/2000/svg">
<g clip-path="url(#clip0_117_1524)">
<g clip-path="url(#clip1_117_1524)">
<path fill-rule="evenodd" clip-rule="evenodd" d="M1.5 29.1114V37.9913C1.5 43.0387 9.58214 47.2831 20.4122 48.2217V35.0087L20.4279 34.383C14.4158 33.9554 8.94078 32.6779 4.64943 30.7643C3.56422 30.2836 2.5121 29.7314 1.5 29.1114ZM48.4286 10.4286V18.0936C41.9837 18.3074 35.9299 19.5536 31.1536 21.681C28.5361 22.8438 26.0124 24.4029 24.0518 26.4573C23.6086 26.9266 23.1758 27.4376 22.7795 27.9851C16.5901 27.7556 11.1881 26.5407 7.30871 24.8096C5.13957 23.8449 3.58571 22.776 2.62107 21.7592C2.10115 21.2579 1.71564 20.6339 1.5 19.9446V10.4286C1.5 4.66679 12.0016 0 24.9643 0C37.9218 0 48.4286 4.66679 48.4286 10.4286ZM24.9643 15.2831C34.0111 15.2831 41.3476 13.1765 41.3476 10.5746C41.3476 7.96743 34.0111 5.86086 24.9591 5.86086C15.9123 5.86086 8.57579 7.97264 8.57579 10.5746C8.57579 13.1765 15.9175 15.2831 24.9643 15.2831ZM26.9301 62.5714V53.6915C27.9104 54.2964 28.9689 54.8491 30.0847 55.3444C35.4294 57.7326 42.599 59.1248 50.3944 59.1248C58.1845 59.1248 65.3594 57.7326 70.704 55.3444C71.8199 54.8491 72.8783 54.3016 73.8586 53.6915V62.5714C73.8586 68.3071 63.4301 73 50.3944 73C37.3586 73 26.9301 68.3071 26.9301 62.5714ZM28.0564 46.3394C27.5353 45.8401 27.148 45.218 26.9301 44.53V35.0087C26.9301 29.2521 37.4369 24.5801 50.3944 24.5801C63.3519 24.5801 73.8586 29.2521 73.8586 35.0087V44.53C73.6417 45.2199 73.2543 45.844 72.7324 46.3446C71.7677 47.3614 70.2191 48.4303 68.0499 49.4001C63.7221 51.3294 57.491 52.6121 50.3944 52.6121C43.2977 52.6121 37.0719 51.3294 32.7388 49.4001C30.5696 48.4303 29.021 47.3614 28.0564 46.3394ZM66.7776 35.1547C66.7776 37.7619 59.4411 39.8684 50.3944 39.8684C41.3424 39.8684 34.0111 37.7566 34.0111 35.1547C34.0111 32.5528 41.3424 30.441 50.3944 30.441C59.4411 30.441 66.7776 32.5528 66.7776 35.1547Z" fill="#66B896"/>
</g>
</g>
<defs>
<clipPath id="clip0_117_1524">
<rect width="73" height="73" fill="white"/>
</clipPath>
<clipPath id="clip1_117_1524">
<rect width="73" height="73" fill="white"/>
</clipPath>
</defs>
</svg>
