<svg width="64" height="75" viewBox="0 0 64 75" fill="none" xmlns="http://www.w3.org/2000/svg">
<path d="M6.33143 75V72.8951L13.1886 68.3392C9.51314 68.3392 6.39543 67.0635 3.83543 64.5122C1.27848 61.9669 0 58.8628 0 55.1999V13.6678C0 8.82639 2.49448 5.33805 7.48343 3.20283C12.4693 1.06761 20.6415 0 32 0C43.4682 0 51.6678 1.05394 56.5989 3.16183C61.5299 5.26971 63.997 8.77172 64 13.6678V55.1953C64 58.8583 62.72 61.9654 60.16 64.5168C57.6031 67.0651 54.4869 68.3392 50.8114 68.3392L57.6686 72.8951V75H6.33143ZM4.57143 36.4476H29.7143V16.1189H4.57143V36.4476ZM34.2857 36.4476H59.4286V16.1189H34.2857V36.4476ZM16.0229 57.4733C17.443 57.4733 18.6438 56.9782 19.6251 55.988C20.6065 54.9948 21.0971 53.789 21.0971 52.3706C21.0971 50.9522 20.6004 49.7555 19.6069 48.7805C18.6103 47.8025 17.4004 47.3135 15.9771 47.3135C14.5539 47.3135 13.3531 47.8086 12.3749 48.7987C11.3935 49.7919 10.9029 50.9977 10.9029 52.4162C10.9029 53.8346 11.3996 55.0313 12.3931 56.0063C13.3897 56.9843 14.5996 57.4733 16.0229 57.4733ZM48.0229 57.4733C49.4431 57.4733 50.6438 56.9782 51.6251 55.988C52.6065 54.9948 53.0971 53.789 53.0971 52.3706C53.0971 50.9522 52.6004 49.7555 51.6069 48.7805C50.6103 47.8025 49.4004 47.3135 47.9771 47.3135C46.5539 47.3135 45.3531 47.8086 44.3749 48.7987C43.3935 49.7919 42.9029 50.9977 42.9029 52.4162C42.9029 53.8346 43.3996 55.0313 44.3931 56.0063C45.3897 56.9843 46.5996 57.4733 48.0229 57.4733Z" fill="#66B896"/>
</svg>
