<svg width="73" height="73" viewBox="0 0 73 73" fill="none" xmlns="http://www.w3.org/2000/svg">
<path d="M13.6875 19.3906C13.6875 16.063 15.0094 12.8716 17.3624 10.5186C19.7154 8.16565 22.9067 6.84375 26.2344 6.84375C29.562 6.84375 32.7534 8.16565 35.1064 10.5186C37.4594 12.8716 38.7812 16.063 38.7812 19.3906C38.7812 22.7183 37.4594 25.9096 35.1064 28.2626C32.7534 30.6156 29.562 31.9375 26.2344 31.9375C22.9067 31.9375 19.7154 30.6156 17.3624 28.2626C15.0094 25.9096 13.6875 22.7183 13.6875 19.3906ZM43.3437 26.2344C43.3437 24.8863 43.6093 23.5514 44.1252 22.3059C44.6411 21.0604 45.3972 19.9287 46.3505 18.9755C47.3037 18.0222 48.4354 17.2661 49.6809 16.7502C50.9264 16.2343 52.2613 15.9688 53.6094 15.9688C54.9575 15.9688 56.2924 16.2343 57.5379 16.7502C58.7833 17.2661 59.915 18.0222 60.8683 18.9755C61.8215 19.9287 62.5777 21.0604 63.0936 22.3059C63.6095 23.5514 63.875 24.8863 63.875 26.2344C63.875 28.957 62.7934 31.5681 60.8683 33.4933C58.9431 35.4184 56.332 36.5 53.6094 36.5C50.8868 36.5 48.2757 35.4184 46.3505 33.4933C44.4253 31.5681 43.3437 28.957 43.3437 26.2344ZM4.5625 58.1719C4.5625 52.4241 6.84578 46.9118 10.91 42.8475C14.9743 38.7833 20.4866 36.5 26.2344 36.5C31.9821 36.5 37.4944 38.7833 41.5587 42.8475C45.623 46.9118 47.9062 52.4241 47.9062 58.1719V58.181L47.9032 58.543C47.8968 58.9298 47.792 59.3086 47.5989 59.6438C47.4057 59.979 47.1305 60.2596 46.7991 60.4592C40.5917 64.1973 33.4804 66.1673 26.2344 66.1562C18.7154 66.1562 11.677 64.0758 5.67271 60.4592C5.34071 60.26 5.06488 59.9796 4.87119 59.6443C4.67749 59.3091 4.57231 58.9301 4.56554 58.543L4.5625 58.1719ZM52.4687 58.181L52.4657 58.619C52.4487 59.6328 52.2066 60.6302 51.757 61.539C57.0668 61.8665 62.3706 60.8078 67.1478 58.4669C67.5173 58.2863 67.831 58.0092 68.0559 57.665C68.2808 57.3207 68.4084 56.922 68.4253 56.5111C68.5327 53.9599 67.9794 51.4242 66.8191 49.1495C65.6588 46.8749 63.9307 44.9385 61.8022 43.5278C59.6738 42.1171 57.2171 41.2799 54.6702 41.0974C52.1232 40.9149 49.5723 41.3932 47.2645 42.486C50.6504 47.0138 52.4756 52.5181 52.4657 58.1719L52.4687 58.181Z" fill="#66B896"/>
</svg>
