<svg width="42" height="46" viewBox="0 0 42 46" fill="none" xmlns="http://www.w3.org/2000/svg">
<path d="M21.0035 0.5C21.4676 0.5 21.9127 0.684374 22.2409 1.01256C22.5691 1.34075 22.7535 1.78587 22.7535 2.25V4H26.25C27.6424 4 28.9777 4.55312 29.9623 5.53769C30.9469 6.52226 31.5 7.85761 31.5 9.25V18H36.75C38.1424 18 39.4777 18.5531 40.4623 19.5377C41.4469 20.5223 42 21.8576 42 23.25V40.75C42 42.1424 41.4469 43.4777 40.4623 44.4623C39.4777 45.4469 38.1424 46 36.75 46H5.25C3.85761 46 2.52226 45.4469 1.53769 44.4623C0.553124 43.4777 0 42.1424 0 40.75V24.2755C0.000366407 23.4002 0.219577 22.5389 0.637689 21.7699C1.0558 21.0009 1.65955 20.3487 2.394 19.8725L9.394 15.333C9.7545 15.102 10.122 14.9165 10.5 14.7835V9.25C10.5 7.85761 11.0531 6.52226 12.0377 5.53769C13.0223 4.55312 14.3576 4 15.75 4H19.2535V2.25C19.2535 1.78587 19.4379 1.34075 19.7661 1.01256C20.0943 0.684374 20.5394 0.5 21.0035 0.5ZM14 14.787C15.967 15.487 17.5 17.342 17.5 19.7395V42.5H24.5V23.25C24.4994 22.1639 24.8357 21.1043 25.4626 20.2173C26.0895 19.3303 26.976 18.6595 28 18.2975V9.25C28 8.78587 27.8156 8.34075 27.4874 8.01256C27.1592 7.68437 26.7141 7.5 26.25 7.5H15.75C15.2859 7.5 14.8408 7.68437 14.5126 8.01256C14.1844 8.34075 14 8.78587 14 9.25V14.787ZM29.75 21.5C29.2859 21.5 28.8408 21.6844 28.5126 22.0126C28.1844 22.3408 28 22.7859 28 23.25V42.5H36.75C37.2141 42.5 37.6592 42.3156 37.9874 41.9874C38.3156 41.6592 38.5 41.2141 38.5 40.75V23.25C38.5 22.7859 38.3156 22.3408 37.9874 22.0126C37.6592 21.6844 37.2141 21.5 36.75 21.5H29.75ZM11.298 18.2695L4.298 22.809C4.05285 22.9679 3.85139 23.1857 3.71201 23.4425C3.57262 23.6993 3.49973 23.9868 3.5 24.279V40.75C3.5 41.2141 3.68437 41.6592 4.01256 41.9874C4.34075 42.3156 4.78587 42.5 5.25 42.5H14V19.7395C14.0003 19.4245 13.9156 19.1153 13.7547 18.8445C13.5939 18.5736 13.363 18.3512 13.0863 18.2007C12.8096 18.0501 12.4974 17.9771 12.1827 17.9892C11.8679 18.0013 11.5623 18.0981 11.298 18.2695Z" fill="#66B896"/>
</svg>
