<svg width="41" height="42" viewBox="0 0 41 42" fill="none" xmlns="http://www.w3.org/2000/svg">
<path d="M5.825 35.5503C4.04375 33.769 2.64805 31.7107 1.63788 29.3753C0.627712 27.0399 0.12342 24.6253 0.125004 22.1315C0.125004 19.6378 0.600003 17.1741 1.55 14.7405C2.5 12.307 4.04375 10.0206 6.18125 7.88154C7.56667 6.49612 9.27905 5.30862 11.3184 4.31904C13.3577 3.32945 15.7723 2.54808 18.5621 1.97491C21.352 1.40016 24.5384 1.05341 28.1215 0.934661C31.7046 0.815911 35.712 0.954452 40.1438 1.35028C40.4604 5.54612 40.5594 9.40549 40.4406 12.9284C40.3219 16.4513 39.9949 19.6283 39.4598 22.4593C38.9262 25.2887 38.1741 27.7619 37.2035 29.8788C36.2329 31.9957 35.0359 33.7675 33.6125 35.194C31.5146 37.292 29.2884 38.8262 26.934 39.7968C24.5796 40.7674 22.1745 41.2519 19.7188 41.2503C17.1458 41.2503 14.6323 40.7452 12.1781 39.735C9.72396 38.7249 7.60625 37.33 5.825 35.5503ZM12.475 34.6003C13.6229 35.2732 14.8009 35.7585 16.009 36.0562C17.2171 36.3538 18.4537 36.5019 19.7188 36.5003C21.5396 36.5003 23.3406 36.1345 25.1219 35.403C26.9031 34.6715 28.6052 33.4935 30.2281 31.869C30.9406 31.1565 31.6634 30.1567 32.3965 28.8694C33.1296 27.5822 33.7629 25.9007 34.2965 23.8249C34.8301 21.746 35.2354 19.2325 35.5125 16.2843C35.7896 13.3361 35.8292 9.8227 35.6313 5.74404C33.6917 5.66487 31.5051 5.63558 29.0715 5.65616C26.6379 5.67674 24.213 5.86437 21.7969 6.21904C19.3823 6.57529 17.0865 7.14924 14.9094 7.94091C12.7323 8.73258 10.951 9.82112 9.56563 11.2065C7.78438 12.9878 6.5573 14.7492 5.88438 16.4909C5.21146 18.2326 4.875 19.9149 4.875 21.5378C4.875 23.8732 5.32071 25.922 6.21213 27.6843C7.10355 29.4465 7.88492 30.6831 8.55625 31.394C10.2188 28.2274 12.4156 25.189 15.1469 22.2788C17.8781 19.3686 21.0646 16.9841 24.7063 15.1253C21.8563 17.619 19.3728 20.4397 17.2559 23.5874C15.139 26.7351 13.5453 30.406 12.475 34.6003Z" fill="#66B896"/>
</svg>
