<svg width="49" height="50" viewBox="0 0 49 50" fill="none" xmlns="http://www.w3.org/2000/svg">
<path d="M42 18C40.4523 18.0046 38.9499 18.5225 37.7281 19.4726C36.5063 20.4226 35.6343 21.7512 35.2485 23.25H27.7515C27.5037 22.2631 27.0418 21.3428 26.3987 20.5542C25.7557 19.7656 24.947 19.1281 24.0302 18.6868C23.1133 18.2454 22.1106 18.0111 21.0931 18.0004C20.0756 17.9897 19.0682 18.2028 18.1423 18.6248L12.5825 11.6773C13.497 10.4762 13.9947 9.00958 14 7.5C14 6.11553 13.5895 4.76216 12.8203 3.61101C12.0511 2.45987 10.9579 1.56266 9.67879 1.03285C8.39971 0.503033 6.99224 0.36441 5.63437 0.634506C4.2765 0.904603 3.02922 1.57129 2.05026 2.55026C1.07129 3.52922 0.404603 4.7765 0.134506 6.13437C-0.13559 7.49224 0.00303297 8.8997 0.532846 10.1788C1.06266 11.4579 1.95987 12.5511 3.11101 13.3203C4.26216 14.0895 5.61553 14.5 7 14.5C7.98678 14.4977 8.96169 14.2847 9.8595 13.8753L15.4175 20.8228C14.4988 22.0215 14.0008 23.4897 14.0008 25C14.0008 26.5103 14.4988 27.9785 15.4175 29.1773L9.8595 36.1248C8.96169 35.7153 7.98678 35.5023 7 35.5C5.61553 35.5 4.26216 35.9105 3.11101 36.6797C1.95987 37.4489 1.06266 38.5421 0.532846 39.8212C0.00303297 41.1003 -0.13559 42.5078 0.134506 43.8656C0.404603 45.2235 1.07129 46.4708 2.05026 47.4497C3.02922 48.4287 4.2765 49.0954 5.63437 49.3655C6.99224 49.6356 8.39971 49.497 9.67879 48.9672C10.9579 48.4373 12.0511 47.5401 12.8203 46.389C13.5895 45.2379 14 43.8845 14 42.5C13.9949 40.9904 13.4972 39.5237 12.5825 38.3228L18.1405 31.3753C19.0665 31.7975 20.0741 32.0109 21.0918 32.0003C22.1095 31.9898 23.1125 31.7555 24.0296 31.3142C24.9466 30.8728 25.7554 30.2352 26.3986 29.4464C27.0418 28.6577 27.5037 27.7371 27.7515 26.75H35.2485C35.578 28.0145 36.2555 29.1612 37.2041 30.06C38.1526 30.9588 39.3341 31.5736 40.6145 31.8346C41.8949 32.0957 43.2228 31.9925 44.4474 31.5367C45.6721 31.081 46.7445 30.291 47.5427 29.2565C48.341 28.2219 48.8331 26.9843 48.9634 25.6841C49.0936 24.3839 48.8566 23.0732 48.2794 21.9009C47.7021 20.7286 46.8077 19.7416 45.6978 19.0521C44.5878 18.3626 43.3067 17.9981 42 18ZM3.5 7.5C3.5 6.80777 3.70527 6.13108 4.08986 5.55551C4.47444 4.97994 5.02107 4.53133 5.66061 4.26642C6.30015 4.00152 7.00389 3.93221 7.68282 4.06725C8.36175 4.2023 8.98539 4.53565 9.47488 5.02513C9.96436 5.51461 10.2977 6.13825 10.4328 6.81719C10.5678 7.49612 10.4985 8.19985 10.2336 8.8394C9.96868 9.47894 9.52007 10.0256 8.9445 10.4101C8.36893 10.7947 7.69224 11 7 11C6.07203 10.9991 5.18233 10.63 4.52615 9.97385C3.86998 9.31768 3.50093 8.42798 3.5 7.5ZM7 46C6.30777 46 5.63108 45.7947 5.05551 45.4101C4.47994 45.0256 4.03133 44.4789 3.76642 43.8394C3.50152 43.1999 3.43221 42.4961 3.56725 41.8172C3.7023 41.1383 4.03565 40.5146 4.52513 40.0251C5.01461 39.5356 5.63825 39.2023 6.31719 39.0673C6.99612 38.9322 7.69985 39.0015 8.33939 39.2664C8.97894 39.5313 9.52556 39.9799 9.91015 40.5555C10.2947 41.1311 10.5 41.8078 10.5 42.5C10.4991 43.428 10.13 44.3177 9.47385 44.9739C8.81768 45.63 7.92798 45.9991 7 46ZM21 28.5C20.3078 28.5 19.6311 28.2947 19.0555 27.9101C18.4799 27.5256 18.0313 26.9789 17.7664 26.3394C17.5015 25.6999 17.4322 24.9961 17.5673 24.3172C17.7023 23.6383 18.0356 23.0146 18.5251 22.5251C19.0146 22.0356 19.6383 21.7023 20.3172 21.5673C20.9961 21.4322 21.6999 21.5015 22.3394 21.7664C22.9789 22.0313 23.5256 22.4799 23.9101 23.0555C24.2947 23.6311 24.5 24.3078 24.5 25C24.4991 25.928 24.13 26.8177 23.4739 27.4739C22.8177 28.13 21.928 28.4991 21 28.5ZM42 28.5C41.3078 28.5 40.6311 28.2947 40.0555 27.9101C39.4799 27.5256 39.0313 26.9789 38.7664 26.3394C38.5015 25.6999 38.4322 24.9961 38.5673 24.3172C38.7023 23.6383 39.0356 23.0146 39.5251 22.5251C40.0146 22.0356 40.6383 21.7023 41.3172 21.5673C41.9961 21.4322 42.6999 21.5015 43.3394 21.7664C43.9789 22.0313 44.5256 22.4799 44.9101 23.0555C45.2947 23.6311 45.5 24.3078 45.5 25C45.4991 25.928 45.13 26.8177 44.4739 27.4739C43.8177 28.13 42.928 28.4991 42 28.5Z" fill="#66B896"/>
</svg>
