<svg width="16" height="15" viewBox="0 0 16 15" fill="none" xmlns="http://www.w3.org/2000/svg">
<path fill-rule="evenodd" clip-rule="evenodd" d="M9.98749 10.1841C8.86413 11.0816 7.43972 11.515 6.00681 11.3952C4.57389 11.2753 3.24126 10.6114 2.2826 9.53966C1.32395 8.46794 0.812043 7.06983 0.852032 5.63247C0.89202 4.19511 1.48086 2.82762 2.49762 1.81086C3.51438 0.794097 4.88187 0.205253 6.31923 0.165264C7.75659 0.125275 9.15471 0.637178 10.2264 1.59583C11.2981 2.55449 11.9621 3.88713 12.0819 5.32004C12.2018 6.75295 11.7684 8.17737 10.8708 9.30073L15.1675 13.5966C15.2289 13.6538 15.2781 13.7228 15.3123 13.7994C15.3465 13.8761 15.3648 13.9589 15.3663 14.0428C15.3678 14.1267 15.3524 14.2101 15.3209 14.2879C15.2895 14.3657 15.2427 14.4364 15.1834 14.4958C15.124 14.5551 15.0533 14.6019 14.9755 14.6333C14.8977 14.6648 14.8143 14.6802 14.7304 14.6787C14.6465 14.6772 14.5637 14.6589 14.487 14.6247C14.4104 14.5906 14.3414 14.5413 14.2842 14.4799L9.98749 10.1841ZM3.38333 8.88239C2.77169 8.2707 2.35512 7.49142 2.18625 6.64304C2.01739 5.79466 2.10381 4.91526 2.43459 4.11598C2.76537 3.3167 3.32567 2.63341 4.04467 2.15248C4.76368 1.67154 5.60911 1.41454 6.47414 1.41396C7.33916 1.41338 8.18494 1.66924 8.90459 2.14921C9.62424 2.62917 10.1855 3.3117 10.5173 4.11054C10.8492 4.90937 10.9368 5.78865 10.769 6.63726C10.6013 7.48587 10.1858 8.26571 9.57499 8.87823L9.57083 8.88239L9.56666 8.88573C8.7459 9.70458 7.63368 10.1642 6.4743 10.1635C5.31492 10.1629 4.2032 9.70213 3.38333 8.88239Z" fill="#6D6D6D"/>
</svg>
