<svg width="51" height="55" viewBox="0 0 51 55" fill="none" xmlns="http://www.w3.org/2000/svg">
<path d="M48.7125 44.6925L43.375 47.3525L38.405 35.75H23.25C22.3217 35.75 21.4315 35.3813 20.7751 34.7249C20.1187 34.0685 19.75 33.1783 19.75 32.25V21.75C19.75 20.8217 20.1187 19.9315 20.7751 19.2751C21.4315 18.6188 22.3217 18.25 23.25 18.25C24.1783 18.25 25.0685 18.6188 25.7249 19.2751C26.3812 19.9315 26.75 20.8217 26.75 21.75V28.75H39V25.25H30.25V21.75C30.25 19.8935 29.5125 18.113 28.1997 16.8003C26.887 15.4875 25.1065 14.75 23.25 14.75C21.3935 14.75 19.613 15.4875 18.3002 16.8003C16.9875 18.113 16.25 19.8935 16.25 21.75V23.5C13.2847 23.4984 10.3792 24.3339 7.86773 25.9104C5.35626 27.4869 3.34084 29.7404 2.05336 32.4116C0.765868 35.0827 0.25861 38.0631 0.589939 41.0098C0.921268 43.9566 2.07772 46.7499 3.92626 49.0685C5.7748 51.387 8.24032 53.1367 11.0392 54.1161C13.838 55.0955 16.8565 55.2649 19.7474 54.6048C22.6383 53.9447 25.2841 52.4819 27.3805 50.3847C29.4768 48.2875 30.9385 45.6411 31.5975 42.75H27.9925C27.3434 44.927 26.1018 46.8807 24.4063 48.3927C22.7108 49.9047 20.6282 50.9154 18.3914 51.3119C16.1545 51.7085 13.8515 51.4752 11.7395 50.6382C9.62764 49.8011 7.79009 48.3933 6.43223 46.572C5.07437 44.7508 4.24971 42.5878 4.05038 40.3248C3.85106 38.0618 4.28494 35.788 5.30352 33.7574C6.32211 31.7268 7.88528 30.0195 9.81836 28.8262C11.7514 27.6329 13.9783 27.0006 16.25 27V32.25C16.25 34.1065 16.9875 35.887 18.3002 37.1998C19.613 38.5125 21.3935 39.25 23.25 39.25H36.095L41.625 52.1475L50.2875 47.8075L48.7125 44.6925ZM24.125 13C22.9136 13 21.7294 12.6408 20.7221 11.9678C19.7149 11.2947 18.9298 10.3381 18.4662 9.21894C18.0026 8.09974 17.8814 6.86821 18.1177 5.68007C18.354 4.49194 18.9374 3.40057 19.794 2.54397C20.6506 1.68738 21.7419 1.10403 22.9301 0.867693C24.1182 0.631358 25.3497 0.752654 26.4689 1.21624C27.5881 1.67983 28.5447 2.46488 29.2177 3.47214C29.8908 4.47939 30.25 5.66359 30.25 6.875C30.25 8.49945 29.6047 10.0574 28.456 11.206C27.3074 12.3547 25.7494 13 24.125 13ZM24.125 4.25C23.6058 4.25 23.0983 4.40396 22.6666 4.6924C22.2349 4.98083 21.8985 5.3908 21.6998 5.87046C21.5011 6.35011 21.4491 6.87791 21.5504 7.38712C21.6517 7.89632 21.9017 8.36405 22.2688 8.73116C22.636 9.09827 23.1037 9.34828 23.6129 9.44956C24.1221 9.55085 24.6499 9.49887 25.1295 9.30019C25.6092 9.10151 26.0192 8.76505 26.3076 8.33337C26.596 7.9017 26.75 7.39418 26.75 6.875C26.75 6.17881 26.4734 5.51113 25.9811 5.01885C25.4889 4.52656 24.8212 4.25 24.125 4.25Z" fill="#66B896"/>
</svg>
