<svg width="34" height="28" viewBox="0 0 34 28" fill="none" xmlns="http://www.w3.org/2000/svg">
<path d="M30.5052 6.9781C30.5267 7.28434 30.5267 7.59064 30.5267 7.89687C30.5267 17.2375 23.5153 28 10.7005 28C6.75255 28 3.08505 26.8406 0 24.8282C0.560936 24.8937 1.10022 24.9156 1.68274 24.9156C4.94031 24.9156 7.9391 23.8 10.3338 21.8969C7.27032 21.8313 4.70304 19.7969 3.81851 16.9969C4.25002 17.0625 4.68146 17.1062 5.13455 17.1062C5.76017 17.1062 6.38585 17.0187 6.9683 16.8656C3.77541 16.2093 1.38066 13.3656 1.38066 9.93124V9.84377C2.30829 10.3688 3.38706 10.6969 4.53039 10.7406C2.65347 9.47182 1.42382 7.30622 1.42382 4.8562C1.42382 3.54373 1.76894 2.3406 2.37304 1.29059C5.80327 5.57809 10.9594 8.37804 16.7411 8.68435C16.6332 8.15934 16.5685 7.61252 16.5685 7.06563C16.5685 3.17184 19.6751 0 23.5368 0C25.5431 0 27.3553 0.853123 28.6282 2.23125C30.203 1.92501 31.7132 1.33436 33.0508 0.525004C32.533 2.16567 31.4327 3.54379 29.9873 4.41873C31.3896 4.26568 32.7488 3.87184 34 3.32502C33.0509 4.72497 31.8643 5.97179 30.5052 6.9781Z" fill="white"/>
</svg>
